<svg width="120" height="60" viewBox="0 0 120 60" fill="none" xmlns="http://www.w3.org/2000/svg">
<path d="M11.2846 19.1656L9.3535 21.0966C8.50105 21.9491 8.50105 23.3312 9.3535 24.1836L11.2846 26.1147C12.137 26.9671 13.5191 26.9671 14.3716 26.1147L16.3026 24.1836C17.1551 23.3312 17.1551 21.9491 16.3026 21.0966L14.3716 19.1656C13.5191 18.3131 12.137 18.3131 11.2846 19.1656Z" fill="#5A81FA"/>
<path d="M25.3 34.2974L18.3865 41.2109C17.5337 42.0637 16.1529 42.0637 15.3001 41.2109L12.8349 38.7458L4.83941 30.7491C4.28543 30.1951 3.56018 29.9187 2.83493 29.9187C2.10968 29.9187 1.38324 30.1963 0.830444 30.7491L5.30008 26.2783C6.1529 25.4255 7.5349 25.4255 8.38772 26.2783L12.8349 30.7255L12.829 30.7326L15.2942 33.1989C15.3402 33.245 15.3875 33.2887 15.4371 33.3288C16.2946 34.0494 17.575 34.0057 18.3818 33.1989L19.3693 32.2102L20.8304 30.7491C21.3832 30.1963 21.6608 29.4711 21.6608 28.7458C21.6608 28.0205 21.3832 27.2953 20.8304 26.7413L25.3 31.2109C26.1529 32.0638 26.1529 33.4458 25.3 34.2986V34.2974Z" fill="#5A81FA"/>
<path d="M21.6607 28.7446C21.6607 29.4699 21.3831 30.1951 20.8303 30.7479L19.3692 32.2091L18.3817 33.1977C17.575 34.0045 16.2957 34.0482 15.437 33.3277C15.3874 33.2875 15.3401 33.2438 15.2941 33.1977L12.8289 30.7314L12.8348 30.7243L13.8258 29.7345L16.8214 26.7378C17.9281 25.631 19.7235 25.631 20.8303 26.7378C21.3831 27.2918 21.6607 28.017 21.6607 28.7423V28.7446Z" fill="#92ACFC"/>
<path d="M12.8354 38.7458L10.3703 41.2109C9.51746 42.0638 8.13547 42.0626 7.28383 41.2109L0.830969 34.7581C-0.27699 33.6501 -0.27699 31.8559 0.830969 30.7503C1.38377 30.1975 2.1102 29.9199 2.83545 29.9199C3.56071 29.9199 4.28596 30.1963 4.83994 30.7503L12.8354 38.7458Z" fill="#92ACFC"/>
<path d="M37.7918 25.7343V41.0047C37.7918 41.1075 37.7257 41.1985 37.6288 41.2292L36.2161 41.6863L34.1242 42.3667C33.9719 42.4163 33.8148 42.3029 33.8148 42.1422V25.7343C33.8148 25.6044 33.9211 25.498 34.051 25.498H37.5556C37.6855 25.498 37.7918 25.6044 37.7918 25.7343Z" fill="#5A81FA"/>
<path d="M35.6364 18.0666L33.5224 20.1806C33.4301 20.2729 33.4301 20.4224 33.5224 20.5147L35.6364 22.6287C35.7286 22.7209 35.8782 22.7209 35.9705 22.6287L38.0844 20.5147C38.1767 20.4224 38.1767 20.2729 38.0844 20.1806L35.9705 18.0666C35.8782 17.9744 35.7286 17.9744 35.6364 18.0666Z" fill="#5A81FA"/>
<path d="M93.2575 26.8595L87.9185 41.5878C87.8842 41.6811 87.7956 41.7437 87.6964 41.7437H84.05C83.9508 41.7437 83.8622 41.6811 83.828 41.5878L78.489 26.8595C78.4335 26.706 78.5469 26.543 78.7111 26.543H82.1861C82.2854 26.543 82.3739 26.6056 82.4082 26.6989L83.8847 30.774L85.8738 36.2595L87.8629 30.774L89.3394 26.6989C89.3737 26.6056 89.4623 26.543 89.5615 26.543H93.0366C93.2008 26.543 93.3141 26.706 93.2586 26.8595H93.2575Z" fill="#5A81FA"/>
<path d="M109.501 34.949C109.562 34.949 109.614 34.9029 109.62 34.8427C109.648 34.5615 109.662 34.2757 109.662 33.9863C109.662 33.3142 109.583 32.6598 109.431 32.0338C108.783 29.3218 106.813 27.1484 104.264 26.2814C103.487 26.0144 102.652 25.8691 101.784 25.8691C100.915 25.8691 100.08 26.0132 99.303 26.2814C96.754 27.1496 94.7826 29.3229 94.1365 32.0338C93.9841 32.6598 93.905 33.3142 93.905 33.9863C93.905 34.3123 93.9227 34.6336 93.9628 34.9478C94.2995 37.9161 96.1941 40.3931 98.7798 41.4928C99.7058 41.8873 100.718 42.1035 101.785 42.1035C102.851 42.1035 103.864 41.8861 104.79 41.4928C106.043 40.9577 107.133 40.1013 107.965 39.0205C108.065 38.8906 108.006 38.7004 107.85 38.6508L104.532 37.5736C104.449 37.5464 104.36 37.5689 104.296 37.6279C103.608 38.2669 102.733 38.6473 101.784 38.6473C99.8416 38.6473 98.2222 37.0598 97.8383 34.9478H109.501V34.949ZM98.1242 32.035C98.7608 30.4368 100.159 29.3265 101.784 29.3265C103.408 29.3265 104.806 30.4368 105.443 32.035H98.1242Z" fill="#5A81FA"/>
<path d="M120 26.2394V29.4664C120 29.5302 119.949 29.581 119.887 29.5834C118.366 29.659 117.071 30.7457 116.464 32.2848C116.365 32.5305 116.286 32.7915 116.225 33.0584C116.146 33.4341 116.099 33.8286 116.099 34.2373V40.7043C116.099 40.8059 116.032 40.8968 115.936 40.9287L115.26 41.1496L112.431 42.0686C112.279 42.1182 112.121 42.0048 112.121 41.8442V26.7674C112.121 26.6375 112.228 26.5312 112.358 26.5312H115.862C115.992 26.5312 116.099 26.6375 116.099 26.7674V27.1856C116.547 26.9186 117.021 26.7013 117.52 26.5312C118.261 26.276 119.055 26.1331 119.88 26.1201C119.946 26.1201 120 26.1733 120 26.2394Z" fill="#5A81FA"/>
<path d="M65.291 26.2852C66.0328 26.0324 66.8207 25.8989 67.6416 25.8989C68.4625 25.8989 69.2504 26.0324 69.9922 26.2852C70.9253 26.5958 71.7781 27.0955 72.5199 27.731V26.5214C72.5199 26.3915 72.6262 26.2852 72.7562 26.2852H76.2608C76.3907 26.2852 76.497 26.3915 76.497 26.5214V41.1717C76.497 41.3324 76.3399 41.4458 76.1875 41.3962L72.5731 40.2233C72.5554 40.241 72.5365 40.2563 72.5188 40.2705C71.9364 40.7772 71.2785 41.1895 70.5698 41.4966C69.6697 41.8864 68.6787 42.1037 67.6404 42.1037C66.6022 42.1037 65.6159 41.8864 64.7111 41.4966C61.9093 40.2847 59.9379 37.3848 59.9379 34.0007C59.9379 30.3922 62.1833 27.3294 65.2899 26.284L65.291 26.2852ZM68.1117 38.6334C70.545 38.6334 72.5199 36.558 72.5199 33.9948C72.5199 31.4316 70.5462 29.3586 68.1117 29.3586C65.6773 29.3586 63.7035 31.434 63.7035 33.9948C63.7035 36.5556 65.6773 38.6334 68.1117 38.6334Z" fill="#5A81FA"/>
<path d="M53.8951 20.3853C53.7983 20.4172 53.7321 20.5081 53.7321 20.6097V36.661L50.9504 35.7573V20.6747C50.9504 20.5448 50.8441 20.4385 50.7142 20.4385H47.4777C47.3478 20.4385 47.2414 20.5448 47.2414 20.6747V35.7573L44.4597 36.661V20.6097C44.4597 20.507 44.3936 20.4172 44.2967 20.3853L41.0603 19.334C40.9079 19.2844 40.7508 19.3978 40.7508 19.5585V41.4389C40.7508 41.5995 40.9079 41.7129 41.0603 41.6633L44.4597 40.5589L47.2414 39.6553L49.0959 39.0517L50.9504 39.6553L53.7321 40.5589L57.1316 41.6633C57.284 41.7129 57.4411 41.5995 57.4411 41.4389V19.5585C57.4411 19.3978 57.284 19.2844 57.1316 19.334L53.8951 20.3853Z" fill="#5A81FA"/>
</svg>
