<svg width="120" height="60" viewBox="0 0 120 60" fill="none" xmlns="http://www.w3.org/2000/svg">
<path d="M11.2847 19.1656L9.35369 21.0966C8.50123 21.9491 8.50123 23.3312 9.35369 24.1836L11.2847 26.1147C12.1372 26.9672 13.5193 26.9672 14.3718 26.1147L16.3028 24.1836C17.1553 23.3312 17.1553 21.9491 16.3028 21.0966L14.3718 19.1656C13.5193 18.3131 12.1372 18.3131 11.2847 19.1656Z" fill="#5A81FA"/>
<path d="M25.3001 34.2974L18.3866 41.211C17.5337 42.0638 16.1529 42.0638 15.3001 41.211L12.8349 38.7458L4.83942 30.7491C4.28544 30.1951 3.56019 29.9187 2.83493 29.9187C2.10968 29.9187 1.38324 30.1963 0.830444 30.7491L5.30009 26.2783C6.15291 25.4255 7.53491 25.4255 8.38773 26.2783L12.8349 30.7255L12.829 30.7326L15.2942 33.1989C15.3403 33.245 15.3875 33.2887 15.4371 33.3288C16.2947 34.0494 17.5751 34.0057 18.3818 33.1989L19.3693 32.2103L20.8305 30.7491C21.3832 30.1963 21.6608 29.4711 21.6608 28.7458C21.6608 28.0206 21.3832 27.2953 20.8305 26.7413L25.3001 31.211C26.1529 32.0638 26.1529 33.4458 25.3001 34.2986V34.2974Z" fill="#5A81FA"/>
<path d="M21.6607 28.7447C21.6607 29.4699 21.3831 30.1952 20.8303 30.748L19.3692 32.2091L18.3817 33.1978C17.575 34.0045 16.2957 34.0482 15.437 33.3277C15.3874 33.2875 15.3401 33.2438 15.2941 33.1978L12.8289 30.7314L12.8348 30.7243L13.8258 29.7345L16.8214 26.7378C17.9281 25.631 19.7236 25.631 20.8303 26.7378C21.3831 27.2918 21.6607 28.017 21.6607 28.7423V28.7447Z" fill="#92ACFC"/>
<path d="M12.8355 38.7458L10.3703 41.211C9.51748 42.0638 8.13548 42.0626 7.28384 41.211L0.830971 34.7581C-0.27699 33.6501 -0.27699 31.8559 0.830971 30.7503C1.38377 30.1975 2.11021 29.9199 2.83546 29.9199C3.56071 29.9199 4.28597 30.1963 4.83995 30.7503L12.8355 38.7458Z" fill="#92ACFC"/>
<path d="M37.792 25.7338V41.0043C37.792 41.1071 37.7259 41.198 37.629 41.2287L36.2163 41.6858L34.1244 42.3662C33.972 42.4158 33.8149 42.3024 33.8149 42.1418V25.7338C33.8149 25.6039 33.9212 25.4976 34.0512 25.4976H37.5558C37.6857 25.4976 37.792 25.6039 37.792 25.7338Z" fill="#5A81FA"/>
<path d="M35.6365 18.0666L33.5226 20.1806C33.4303 20.2729 33.4303 20.4224 33.5226 20.5147L35.6365 22.6287C35.7288 22.7209 35.8784 22.7209 35.9706 22.6287L38.0846 20.5147C38.1769 20.4224 38.1769 20.2729 38.0846 20.1806L35.9706 18.0666C35.8784 17.9744 35.7288 17.9744 35.6365 18.0666Z" fill="#5A81FA"/>
<path d="M93.2579 26.8595L87.9189 41.5879C87.8847 41.6812 87.7961 41.7438 87.6968 41.7438H84.0505C83.9513 41.7438 83.8627 41.6812 83.8284 41.5879L78.4894 26.8595C78.4339 26.706 78.5473 26.543 78.7115 26.543H82.1866C82.2858 26.543 82.3744 26.6056 82.4086 26.6989L83.8851 30.774L85.8743 36.2595L87.8634 30.774L89.3399 26.6989C89.3741 26.6056 89.4627 26.543 89.5619 26.543H93.037C93.2012 26.543 93.3146 26.706 93.2591 26.8595H93.2579Z" fill="#5A81FA"/>
<path d="M109.501 34.9495C109.562 34.9495 109.614 34.9034 109.62 34.8432C109.648 34.562 109.662 34.2762 109.662 33.9868C109.662 33.3147 109.583 32.6603 109.431 32.0343C108.783 29.3223 106.813 27.1489 104.264 26.2819C103.487 26.0149 102.652 25.8696 101.783 25.8696C100.915 25.8696 100.08 26.0137 99.303 26.2819C96.754 27.15 94.7825 29.3234 94.1364 32.0343C93.984 32.6603 93.9049 33.3147 93.9049 33.9868C93.9049 34.3128 93.9226 34.6341 93.9628 34.9483C94.2994 37.9166 96.1941 40.3936 98.7797 41.4933C99.7058 41.8878 100.718 42.104 101.785 42.104C102.851 42.104 103.864 41.8866 104.79 41.4933C106.043 40.9582 107.133 40.1019 107.965 39.0211C108.065 38.8911 108.006 38.701 107.85 38.6513L104.532 37.5741C104.449 37.5469 104.36 37.5694 104.296 37.6284C103.608 38.2675 102.733 38.6478 101.783 38.6478C99.8416 38.6478 98.2222 37.0603 97.8383 34.9483H109.501V34.9495ZM98.1241 32.0355C98.7608 30.4373 100.159 29.327 101.783 29.327C103.408 29.327 104.806 30.4373 105.443 32.0355H98.1241Z" fill="#5A81FA"/>
<path d="M120 26.2394V29.4664C120 29.5302 119.949 29.581 119.887 29.5834C118.366 29.659 117.071 30.7457 116.463 32.2848C116.365 32.5305 116.286 32.7915 116.225 33.0585C116.146 33.4341 116.098 33.8286 116.098 34.2373V40.7043C116.098 40.8059 116.032 40.8969 115.935 40.9288L115.26 41.1496L112.431 42.0686C112.278 42.1182 112.121 42.0048 112.121 41.8442V26.7674C112.121 26.6375 112.228 26.5312 112.358 26.5312H115.862C115.992 26.5312 116.098 26.6375 116.098 26.7674V27.1856C116.547 26.9186 117.021 26.7013 117.519 26.5312C118.261 26.276 119.055 26.1331 119.879 26.1201C119.946 26.1201 120 26.1733 120 26.2394Z" fill="#5A81FA"/>
<path d="M65.2916 26.2852C66.0334 26.0324 66.8212 25.8989 67.6422 25.8989C68.4631 25.8989 69.251 26.0324 69.9928 26.2852C70.9259 26.5958 71.7787 27.0955 72.5205 27.731V26.5214C72.5205 26.3915 72.6268 26.2852 72.7568 26.2852H76.2614C76.3913 26.2852 76.4976 26.3915 76.4976 26.5214V41.1718C76.4976 41.3324 76.3405 41.4458 76.1881 41.3962L72.5737 40.2233C72.5559 40.241 72.537 40.2564 72.5193 40.2705C71.937 40.7773 71.2791 41.1895 70.5704 41.4966C69.6703 41.8864 68.6793 42.1037 67.641 42.1037C66.6027 42.1037 65.6164 41.8864 64.7116 41.4966C61.9098 40.2847 59.9384 37.3849 59.9384 34.0007C59.9384 30.3922 62.1839 27.3294 65.2904 26.284L65.2916 26.2852ZM68.1123 38.6334C70.5456 38.6334 72.5205 36.558 72.5205 33.9948C72.5205 31.4316 70.5467 29.3586 68.1123 29.3586C65.6778 29.3586 63.7041 31.434 63.7041 33.9948C63.7041 36.5557 65.6778 38.6334 68.1123 38.6334Z" fill="#5A81FA"/>
<path d="M53.8952 20.3853C53.7983 20.4172 53.7322 20.5081 53.7322 20.6097V36.661L50.9505 35.7574V20.6747C50.9505 20.5448 50.8442 20.4385 50.7142 20.4385H47.4778C47.3478 20.4385 47.2415 20.5448 47.2415 20.6747V35.7574L44.4598 36.661V20.6097C44.4598 20.507 44.3937 20.4172 44.2968 20.3853L41.0603 19.334C40.908 19.2844 40.7509 19.3978 40.7509 19.5585V41.4389C40.7509 41.5996 40.908 41.713 41.0603 41.6634L44.4598 40.5589L47.2415 39.6553L49.096 39.0517L50.9505 39.6553L53.7322 40.5589L57.1317 41.6634C57.2841 41.713 57.4412 41.5996 57.4412 41.4389V19.5585C57.4412 19.3978 57.2841 19.2844 57.1317 19.334L53.8952 20.3853Z" fill="#5A81FA"/>
</svg>
